# xmcd CD database file
#
# Track frame offsets:
#	150
#	19735
#	38610
#	58485
#	66395
#	90435
#	113835
#	132640
#	144790
#	162895
#
# Disc length: 2596 seconds
#
# Revision: 4
# Processed by: cddbd v1.5.2PL0 Copyright (c) Steve Scherf et al.
# Submitted via: CDex 1.70beta2
#
DISCID=870a220a
DTITLE=George Michael - Songs From The Last Century
DYEAR=1999
DGENRE=Jazz
TTITLE0=Brother, Can You Spare A Dime (Jay Gorney/E.Y.Yip Harburg)
TTITLE1=Roxanne (Sting)
TTITLE2=You've Changed (Bill Carey/Carl Fischer)
TTITLE3=My Baby Just Cares For Me (Walter Donaldson/Gus Kahn)
TTITLE4=The First Time Ever I Saw Your Face (Ewan MacColl)
TTITLE5=Miss Sarajevo (Bono)
TTITLE6=I Remember You (Victor Schertzinger/Johnny Mercer)
TTITLE7=Secret Love (Sammy Fain/Paul Francis Webster)
TTITLE8=Wild Is The Wind (Dimitri Tiomkin/Ned Washington)
TTITLE9=Where Or When (Richard Rodgers/Lorenz Hart)
EXTD=YEAR: 1999
EXTT0=
EXTT1=
EXTT2=
EXTT3=
EXTT4=
EXTT5=
EXTT6=
EXTT7=
EXTT8=
EXTT9=
PLAYORDER=
